<svg xmlns="http://www.w3.org/2000/svg" viewBox="0 0 120 120" fill="none" shape-rendering="auto" width="512" height="512"><desc>"Bottts" by "Pablo Stanley", licensed under "Free for personal and commercial use". / Remix of the original. - Created with dicebear.com</desc><metadata xmlns:dc="http://purl.org/dc/elements/1.1/" xmlns:cc="http://creativecommons.org/ns#" xmlns:rdf="http://www.w3.org/1999/02/22-rdf-syntax-ns#"><rdf:RDF><cc:Work><dc:title>Bottts</dc:title><dc:creator><cc:Agent rdf:about="https://twitter.com/pablostanley"><dc:title>Pablo Stanley</dc:title></cc:Agent></dc:creator><dc:source>https://bottts.com/</dc:source><cc:license rdf:resource="https://bottts.com/" /></cc:Work></rdf:RDF></metadata><mask id="viewboxMask"><rect width="120" height="120" rx="0" ry="0" x="0" y="0" fill="#fff" /></mask><g mask="url(#viewboxMask)"><rect fill="#43a047" width="120" height="120" x="0" y="0" /><g transform="translate(22 68)"><g fill="#000" fill-opacity=".6"><rect x="12" y="12" width="4" height="8" rx="2"/><rect x="36" y="12" width="4" height="8" rx="2"/><rect x="24" y="12" width="4" height="8" rx="2"/><rect x="48" y="12" width="4" height="8" rx="2"/><rect x="60" y="12" width="4" height="8" rx="2"/></g></g><g transform="translate(8 20)"><path d="M0 10a8 8 0 0 1 8-8h88a8 8 0 0 1 8 8v18a8 8 0 0 1-8 8H82.98c-3.27.17-5.48 1.14-6.98 2.35l-1.48 1.24c-2.47 2.12-5.15 4.4-8.24 4.4H38.67c-3.14 0-5.94-2.12-8.62-4.16-.95-.72-1.89-1.44-2.82-2.04A12.38 12.38 0 0 0 21.02 36H8a8 8 0 0 1-8-8V10Z" fill="#000" fill-opacity=".8"/><mask id="eyesShade01-a" style="mask-type:alpha" maskUnits="userSpaceOnUse" x="0" y="2" width="104" height="42"><path d="M0 10a8 8 0 0 1 8-8h88a8 8 0 0 1 8 8v18a8 8 0 0 1-8 8H82.98c-3.27.17-5.48 1.14-6.98 2.35l-1.48 1.24c-2.47 2.12-5.15 4.4-8.24 4.4H38.67c-3.14 0-5.94-2.12-8.62-4.16-.95-.72-1.89-1.44-2.82-2.04A12.38 12.38 0 0 0 21.02 36H8a8 8 0 0 1-8-8V10Z" fill="#000" fill-opacity=".8"/></mask><g mask="url(#eyesShade01-a)"><path d="M12 19a5 5 0 0 1 5-5h70a5 5 0 0 1 5 5v2a5 5 0 0 1-5 5H74.98c-3.27.17-5.48 1.14-6.98 2.35l-1.48 1.24c-2 1.72-4.14 3.54-6.52 4.18V34H46.67c-3.14 0-5.94-2.13-8.62-4.17-.95-.72-1.89-1.44-2.82-2.04A12.38 12.38 0 0 0 29.02 26H17a5 5 0 0 1-5-5v-2Z" fill="#FF3D3D"/><path d="M12 44 32-2h-4L8 44h4ZM50-2H39L19 44h11L50-2Z" fill="#fff" fill-opacity=".2"/></g></g></g></svg>